<svg width="104" height="56" viewBox="0 0 104 56" fill="none" xmlns="http://www.w3.org/2000/svg">
<path d="M98.9146 42.8399V42.1963H100.467V40.3224H101.148V42.1963H103.817V42.8399H101.148V48.3481C101.148 49.3135 101.754 50.0327 102.568 50.0327H103.798V50.7142H102.53C101.375 50.7142 100.467 49.711 100.467 48.4049V42.8399H98.9146Z" fill="#036951"/>
<path d="M89.5503 50.7142V36.991H90.2506V44.0513C90.4967 43.5592 90.8942 43.1049 91.4431 42.7074C91.9921 42.291 92.7492 42.0828 93.7146 42.0828C94.6989 42.0828 95.5128 42.4235 96.1753 43.086C96.8378 43.7485 97.1596 44.5624 97.1596 45.5656V50.7142H96.4592V45.6792C96.4592 44.8463 96.1753 44.146 95.6264 43.597C95.0774 43.0292 94.396 42.7453 93.5821 42.7453C92.6546 42.7453 91.8596 43.0292 91.216 43.616C90.5724 44.1838 90.2506 44.8842 90.2506 45.736V50.7142H89.5503Z" fill="#036951"/>
<path d="M82.2421 42.0829C83.8131 42.0829 85.1571 42.8968 85.8953 44.2029V42.1965H86.5767V50.7711C86.5767 52.0015 86.1603 53.0425 85.3085 53.8565C84.4567 54.6704 83.4156 55.0868 82.1474 55.0868C80.6142 55.0868 79.2514 54.3865 78.4942 53.2507L79.1756 53.0047C79.7814 53.8565 80.8981 54.4054 82.1096 54.4054C83.2074 54.4054 84.116 54.0647 84.8353 53.3643C85.5546 52.664 85.9142 51.8122 85.9142 50.7711V48.689C85.176 49.995 83.8321 50.8279 82.2421 50.8279C81.0496 50.8279 80.0464 50.4115 79.2324 49.5786C78.4185 48.7457 78.021 47.7047 78.021 46.4554C78.021 45.2061 78.4185 44.165 79.2324 43.3322C80.0464 42.4993 81.0496 42.0829 82.2421 42.0829ZM84.8164 43.8432C84.1349 43.1429 83.2831 42.7832 82.2799 42.7832C81.2767 42.7832 80.4249 43.1429 79.7435 43.8432C79.0621 44.5436 78.7214 45.4143 78.7214 46.4554C78.7214 47.4965 79.0621 48.3861 79.7435 49.0865C80.4249 49.7868 81.2767 50.1465 82.2799 50.1465C83.2831 50.1465 84.1349 49.7868 84.8164 49.0865C85.5167 48.3861 85.8574 47.4965 85.8574 46.4554C85.8574 45.4143 85.5167 44.5436 84.8164 43.8432Z" fill="#036951"/>
<path d="M75.6293 50.7142H74.929V42.1964H75.6293V50.7142ZM75.2886 38.7324C76.0458 38.7324 76.0458 39.9438 75.2886 39.9438C74.4936 39.9438 74.4936 38.7324 75.2886 38.7324Z" fill="#036951"/>
<path d="M72.64 46.6257H64.7467C64.7846 47.6479 65.1632 48.4997 65.8635 49.1622C66.5639 49.8247 67.4535 50.1654 68.5135 50.1654C69.8575 50.1654 70.8796 49.6354 71.58 48.5754L72.2425 48.8025C71.4853 50.0707 70.1035 50.8279 68.5135 50.8279C67.2264 50.8279 66.1664 50.4115 65.3146 49.5786C64.4628 48.7457 64.0464 47.7047 64.0464 46.4554C64.0464 45.2061 64.4628 44.165 65.2767 43.3322C66.0907 42.4993 67.1128 42.0829 68.3432 42.0829C69.5735 42.0829 70.5957 42.4993 71.4096 43.3322C72.2425 44.165 72.6589 45.2061 72.6589 46.4554C72.6589 46.4743 72.64 46.569 72.64 46.6257ZM64.7657 46.02H71.9396C71.845 45.0736 71.4475 44.2975 70.785 43.6729C70.1225 43.0482 69.3085 42.7454 68.3432 42.7454C67.3967 42.7454 66.5828 43.0482 65.9203 43.6729C65.2578 44.2975 64.8603 45.0736 64.7657 46.02Z" fill="#036951"/>
<path d="M59.3068 45.774V50.7143H58.6064V42.1965H59.3068V44.0704C59.5529 43.5782 59.9504 43.124 60.4993 42.7075C61.0482 42.2911 61.8243 42.0829 62.8086 42.0829H63.0547V42.8211C62.8843 42.8022 62.7518 42.7832 62.6761 42.7832C61.7297 42.7832 60.9347 43.0672 60.2722 43.654C59.6286 44.2218 59.3068 44.9222 59.3068 45.774Z" fill="#036951"/>
<path d="M47.4316 37.9375H56.3849V38.6379H48.1699V43.7296H55.5331V44.4489H48.1699V50.7143H47.4316V37.9375Z" fill="#036951"/>
<path d="M85.961 23.0406C86.8506 23.0406 87.6267 23.3056 88.3081 23.8356V18.0624H90.7499V31.7856H88.3081V31.1988C87.6267 31.7288 86.8506 31.9938 85.961 31.9938C84.8063 31.9938 83.8599 31.5774 83.0838 30.7256C82.3078 29.8738 81.9292 28.7949 81.9292 27.5267C81.9292 26.2585 82.3078 25.1795 83.0838 24.3277C83.8599 23.4759 84.8063 23.0406 85.961 23.0406ZM84.4846 27.5077C84.4846 28.6624 85.3174 29.571 86.3774 29.571C87.4374 29.571 88.2703 28.6624 88.2703 27.5077C88.2703 26.372 87.4374 25.4635 86.3774 25.4635C85.3174 25.4635 84.4846 26.372 84.4846 27.5077Z" fill="#036951"/>
<path d="M72.7114 31.7858V23.2679H75.1721V24.1197C75.7589 23.4004 76.535 23.0408 77.5004 23.0408C78.4279 23.0408 79.185 23.3626 79.8096 23.9872C80.4343 24.6118 80.7561 25.3879 80.7561 26.3154V31.7858H78.2954V26.959C78.2954 26.0315 77.6329 25.3311 76.7432 25.3311C75.8536 25.3311 75.1721 26.0315 75.1721 26.959V31.7858H72.7114Z" fill="#036951"/>
<path d="M66.4776 23.0408C67.3672 23.0408 68.1433 23.3058 68.8247 23.8358V23.2679H71.2665V31.7858H68.8247V31.199C68.1433 31.729 67.3672 31.994 66.4776 31.994C65.3229 31.994 64.3765 31.5776 63.6004 30.7258C62.8244 29.874 62.4458 28.7951 62.4458 27.5268C62.4458 26.2586 62.8244 25.1797 63.6004 24.3279C64.3765 23.4761 65.3229 23.0408 66.4776 23.0408ZM65.0012 27.5079C65.0012 28.6626 65.834 29.5711 66.894 29.5711C67.954 29.5711 68.7869 28.6626 68.7869 27.5079C68.7869 26.3722 67.954 25.4636 66.894 25.4636C65.834 25.4636 65.0012 26.3722 65.0012 27.5079Z" fill="#036951"/>
<path d="M61.2898 31.7856H58.8291V18.0624H61.2898V31.7856Z" fill="#036951"/>
<path d="M57.5995 25.369L55.347 25.7476C55.1956 25.2743 54.7792 25.0283 54.0788 25.0283C53.4163 25.0283 53.0945 25.2176 53.0945 25.5772C53.0945 25.8043 53.3217 25.9936 53.776 26.1451L55.2902 26.6372C57.0317 27.1861 57.732 27.9622 57.732 29.2493C57.732 31.0476 56.3502 31.994 54.2113 31.994C52.0724 31.994 50.7852 31.0476 50.5581 29.4576L52.8106 29.1358C52.9431 29.7036 53.4352 29.9876 54.2681 29.9876C54.9306 29.9876 55.3849 29.7415 55.3849 29.3629C55.3849 29.0979 55.101 28.8708 54.5331 28.7004L52.981 28.2461C51.391 27.7918 50.7285 27.0726 50.7285 25.7854C50.7285 23.9115 52.1292 23.0408 54.1735 23.0408C56.161 23.0408 57.3913 23.9304 57.5995 25.369Z" fill="#036951"/>
<path d="M49.2488 31.7856H46.542V19.0088H49.2488V31.7856Z" fill="#036951"/>
<path d="M85.671 13.2735L85.8414 12.8003L82.6235 4.33923H85.16L87.015 9.58245L88.9457 4.33923H91.4821L87.7153 14.0874C86.9014 16.1885 85.6142 17.116 83.551 17.116H83.286V14.7689H83.57C84.611 14.7689 85.3114 14.2767 85.671 13.2735Z" fill="#036951"/>
<path d="M74.1719 12.8571V4.3392H76.6326V5.19099C77.2194 4.4717 77.9954 4.11206 78.9608 4.11206C79.8883 4.11206 80.6454 4.43385 81.2701 5.05849C81.8947 5.68313 82.2165 6.4592 82.2165 7.3867V12.8571H79.7558V8.03027C79.7558 7.10277 79.0933 6.40242 78.2037 6.40242C77.314 6.40242 76.6326 7.10277 76.6326 8.03027V12.8571H74.1719Z" fill="#036951"/>
<path d="M64.689 9.80959V4.33923H67.1497V9.14709C67.1497 10.0746 67.8122 10.7939 68.7018 10.7939C69.5915 10.7939 70.2729 10.0746 70.2729 9.14709V4.33923H72.7336V12.8571H70.2729V11.9864C69.6861 12.7057 68.91 13.0653 67.9447 13.0653C67.0172 13.0653 66.2411 12.7624 65.6165 12.1378C64.9918 11.5132 64.689 10.7371 64.689 9.80959Z" fill="#036951"/>
<path d="M61.1419 4.3392V5.22885C61.6908 4.49063 62.4669 4.11206 63.4701 4.11206C63.6026 4.11206 63.6972 4.11206 63.754 4.13099V6.74313C63.5079 6.5917 63.2051 6.51599 62.8644 6.51599C61.8801 6.51599 61.1419 7.2542 61.1419 8.25742V12.8571H58.6812V4.3392H61.1419Z" fill="#036951"/>
<path d="M53.1291 12.8571H46.542V0.0803223H52.7695C53.9241 0.0803223 54.8706 0.421037 55.6466 1.10246C56.4227 1.76497 56.8013 2.59782 56.8013 3.60104C56.8013 4.64211 56.4038 5.49389 55.6088 6.15639C56.7634 6.87568 57.3313 7.87889 57.3313 9.18497C57.3313 10.226 56.9338 11.1157 56.1199 11.816C55.3059 12.5164 54.3216 12.8571 53.1291 12.8571ZM53.1102 7.50032H49.2488V10.3775H53.1102C53.8863 10.3775 54.5109 9.75282 54.5109 8.93889C54.5109 8.12497 53.8863 7.50032 53.1102 7.50032ZM52.7316 2.57889H49.2488V5.13425H52.7316C53.3941 5.13425 53.9052 4.69889 53.9809 4.03639C53.9999 3.99854 53.9999 3.94175 53.9999 3.84711C53.9999 3.10889 53.4698 2.57889 52.7316 2.57889Z" fill="#036951"/>
<path d="M22.6143 30.2711C22.6534 30.259 22.6924 30.2468 22.7809 30.2176C23.047 30.0119 23.3131 29.8062 23.5888 29.5657C23.602 29.5435 23.6209 29.5316 23.6455 29.5202C23.6455 29.5202 23.6546 29.521 23.6731 29.4723C23.898 29.2404 24.1261 29.0118 24.3474 28.7759C25.5613 27.4823 26.776 26.1895 27.9848 24.8904C28.3903 24.4547 28.7974 24.0178 29.1705 23.551C29.5267 23.1054 29.7304 22.5823 29.7464 21.9754C29.7674 21.1808 29.4603 20.5397 28.9622 20.001C27.2649 18.1651 25.5574 16.3401 23.846 14.5192C23.5017 14.1528 23.1467 13.795 22.6809 13.5916C21.9389 13.2676 21.1182 13.4122 20.6095 14.0155C20.0217 14.7125 19.8708 15.4511 20.2921 16.3024C20.4478 16.617 20.6544 16.9159 20.8867 17.1707C21.2876 17.6104 21.7241 18.0132 22.1506 18.4256C22.5953 18.8554 23.0458 19.2782 23.5381 19.7236C23.6135 19.8179 23.5845 19.8599 23.4775 19.8591C23.0585 19.8559 22.6395 19.8518 22.1555 19.8589C22.0241 19.8641 21.8927 19.8694 21.7155 19.9174C21.6669 19.9258 21.6184 19.9416 21.5698 19.9416C19.9805 19.9432 18.3911 19.9445 16.8018 19.9408C16.7083 19.9405 16.6148 19.8989 16.4628 19.8677C16.4041 19.8611 16.3454 19.8545 16.2207 19.86C15.9731 19.8333 15.7256 19.8067 15.4139 19.7821C15.18 19.7435 14.944 19.7158 14.7126 19.6646C12.7491 19.23 11.1117 18.1815 9.79661 16.5751C7.47475 13.7389 7.04422 10.4909 8.10409 6.97526C8.68753 5.03997 9.79441 3.46736 11.2842 2.2131C11.8931 1.70043 12.5428 1.24983 13.3133 0.917318C14.4751 0.360521 15.6951 0.0900061 17.0135 0.0235903C17.0874 0.0156794 17.1612 0.000881032 17.2351 0.000851555C20.0645 -0.000291033 22.8938 -0.000779492 25.7232 0.00265318C25.8303 0.00278203 25.9373 0.042619 26.1141 0.0715947C27.6157 0.0693832 29.1173 0.0671717 30.6677 0.0243279C31.5583 0.0169778 32.4489 0.00872446 33.3395 0.00496902C33.3837 0.00478126 33.428 0.0437493 33.5364 0.0732307C33.7088 0.0993137 33.882 0.120434 34.0534 0.152239C35.9054 0.495813 36.9015 1.89809 37.0646 3.80616C37.1247 4.50989 37.1216 5.22097 37.1258 5.92884C37.1357 7.57414 37.1337 9.21954 37.1338 10.8649C37.1338 11.3458 37.1244 11.8267 37.1325 12.3814C37.1342 12.4349 37.1374 12.4883 37.1375 12.5418C37.1397 16.9686 37.1419 21.3954 37.143 25.8222C37.143 25.9286 37.1312 26.0351 37.137 26.2156C37.1388 26.3092 37.1422 26.4028 37.1422 26.4964C37.1429 31.8747 37.1433 37.253 37.1429 42.6312C37.1429 42.711 37.1311 42.7907 37.1371 42.9446C37.1173 43.7182 37.1455 44.4974 37.0679 45.2642C36.8965 46.9573 36.2039 48.3753 34.9468 49.441C34.0137 50.232 32.9454 50.6724 31.6993 50.788C30.6899 50.7959 29.6804 50.8038 28.6012 50.8234C24.6593 50.8255 20.7175 50.8276 16.7756 50.8288C16.7137 50.8288 16.6518 50.8172 16.5205 50.8243C15.239 50.8278 13.9575 50.8325 12.676 50.8333C12.4527 50.8335 12.2293 50.8169 11.948 50.8208C11.8145 50.8003 11.681 50.7798 11.4819 50.7671C11.2484 50.739 11.0143 50.7157 10.7815 50.6821C9.43405 50.4873 8.18175 49.9672 6.97179 49.3373C5.26893 48.4508 3.85522 47.1673 2.69683 45.5661C2.10802 44.7522 1.59874 43.8898 1.21042 42.9351C0.863104 42.0812 0.549871 41.2233 0.377305 40.312C0.260766 39.6967 0.191391 39.071 0.0755803 38.4555C-0.0446352 37.8165 0.00902815 37.1772 0.0335823 36.538C0.0410328 36.344 0.145207 36.1538 0.150396 35.9602C0.17217 35.1485 0.366979 34.3794 0.609947 33.5581C1.34646 31.0364 2.62862 28.8931 4.51044 27.182C4.97227 26.762 5.50206 26.428 6.03096 26.0095C7.59307 24.9875 9.29938 24.4511 11.1594 24.2346C11.3907 24.2239 11.6219 24.2132 11.9067 24.2059C11.9422 24.2014 11.9776 24.197 12.061 24.1523C12.3432 24.143 12.6253 24.1336 12.9688 24.1288C13.0505 24.1233 13.1321 24.1177 13.2606 24.0723C13.4728 24.0663 13.6849 24.0602 13.9661 24.0565C14.3155 24.0569 14.665 24.0574 15.0785 24.0491C15.2071 24.0435 15.3358 24.038 15.513 23.9917C16.1763 23.9867 16.8396 23.9818 17.5716 23.9779C18.42 23.9776 19.2683 23.9773 20.1761 23.9689C20.2558 23.9641 20.3355 23.9593 20.4637 23.913C21.3659 23.9047 22.2681 23.8958 23.1703 23.8902C23.2155 23.8899 23.2652 23.9121 23.3037 23.9389C23.3157 23.9473 23.2975 24.0055 23.256 24.0808C22.4763 24.9473 21.6914 25.8084 20.9206 26.6837C20.7169 26.9152 20.529 27.1737 20.3812 27.4489C19.7406 28.6416 20.2478 29.9964 21.5393 30.3966C21.8101 30.3949 22.0809 30.3932 22.3588 30.3939C22.3588 30.3939 22.3633 30.3877 22.3953 30.3514C22.4552 30.3378 22.5151 30.3242 22.583 30.3122C22.583 30.3122 22.5878 30.3052 22.6143 30.2711Z" fill="#036951"/>
</svg>
