<svg width="36" height="32" viewBox="0 0 36 32" fill="none" xmlns="http://www.w3.org/2000/svg">
<path d="M5.33333 32C3.85185 32 2.59259 31.4815 1.55556 30.4444C0.518518 29.4074 0 28.1481 0 26.6667C0 25.1852 0.518518 23.9259 1.55556 22.8889C2.59259 21.8519 3.85185 21.3333 5.33333 21.3333H30.2222C31.7037 21.3333 32.963 21.8519 34 22.8889C35.037 23.9259 35.5556 25.1852 35.5556 26.6667C35.5556 28.1481 35.037 29.4074 34 30.4444C32.963 31.4815 31.7037 32 30.2222 32H5.33333ZM5.33333 28.4444H30.2222C30.7259 28.4444 31.1481 28.2741 31.4889 27.9333C31.8296 27.5926 32 27.1704 32 26.6667C32 26.163 31.8296 25.7407 31.4889 25.4C31.1481 25.0593 30.7259 24.8889 30.2222 24.8889H5.33333C4.82963 24.8889 4.40741 25.0593 4.06667 25.4C3.72593 25.7407 3.55556 26.163 3.55556 26.6667C3.55556 27.1704 3.72593 27.5926 4.06667 27.9333C4.40741 28.2741 4.82963 28.4444 5.33333 28.4444ZM14.2222 17.7778C13.7185 17.7778 13.2963 17.6074 12.9556 17.2667C12.6148 16.9259 12.4444 16.5037 12.4444 16V1.77778C12.4444 1.27407 12.6148 0.851852 12.9556 0.511111C13.2963 0.17037 13.7185 0 14.2222 0H28.4444C28.9481 0 29.3704 0.17037 29.7111 0.511111C30.0518 0.851852 30.2222 1.27407 30.2222 1.77778V16C30.2222 16.5037 30.0518 16.9259 29.7111 17.2667C29.3704 17.6074 28.9481 17.7778 28.4444 17.7778H14.2222ZM16 14.2222H26.6667V3.55556H16V14.2222ZM0 14.1333V10.7111H8.75556V14.1333H0ZM17.7778 8.88889H24.8889V5.37778H17.7778V8.88889ZM3.55556 8.88889H8.75556V5.37778H3.55556V8.88889Z" fill="#036A51"/>
</svg>
