<svg width="140" height="95" viewBox="0 0 140 95" fill="none" xmlns="http://www.w3.org/2000/svg">
<path d="M0 0H140V66.9929C140 82.4608 126.675 95 110.238 95H29.7619C13.3249 95 0 82.4608 0 66.9929V0Z" fill="#036951"/>
<path d="M116.89 65.6495V65.0059H118.443V63.132H119.124V65.0059H121.793V65.6495H119.124V71.1577C119.124 72.123 119.73 72.8423 120.544 72.8423H121.774V73.5237H120.506C119.351 73.5237 118.443 72.5205 118.443 71.2145V65.6495H116.89Z" fill="white"/>
<path d="M107.526 73.5238V59.8005H108.226V66.8609C108.473 66.3687 108.87 65.9145 109.419 65.517C109.968 65.1005 110.725 64.8923 111.69 64.8923C112.675 64.8923 113.489 65.233 114.151 65.8955C114.814 66.558 115.135 67.372 115.135 68.3752V73.5238H114.435V68.4887C114.435 67.6559 114.151 66.9555 113.602 66.4066C113.053 65.8388 112.372 65.5548 111.558 65.5548C110.63 65.5548 109.835 65.8388 109.192 66.4255C108.548 66.9934 108.226 67.6937 108.226 68.5455V73.5238H107.526Z" fill="white"/>
<path d="M100.218 64.8925C101.789 64.8925 103.133 65.7064 103.871 67.0125V65.006H104.553V73.5807C104.553 74.811 104.136 75.8521 103.284 76.666C102.433 77.48 101.391 77.8964 100.123 77.8964C98.59 77.8964 97.2272 77.196 96.47 76.0603L97.1515 75.8142C97.7572 76.666 98.874 77.215 100.085 77.215C101.183 77.215 102.092 76.8742 102.811 76.1739C103.53 75.4735 103.89 74.6217 103.89 73.5807V71.4985C103.152 72.8046 101.808 73.6375 100.218 73.6375C99.0254 73.6375 98.0222 73.221 97.2083 72.3882C96.3943 71.5553 95.9968 70.5142 95.9968 69.265C95.9968 68.0157 96.3943 66.9746 97.2083 66.1417C98.0222 65.3089 99.0254 64.8925 100.218 64.8925ZM102.792 66.6528C102.111 65.9525 101.259 65.5928 100.256 65.5928C99.2525 65.5928 98.4008 65.9525 97.7193 66.6528C97.0379 67.3532 96.6972 68.2239 96.6972 69.265C96.6972 70.306 97.0379 71.1957 97.7193 71.896C98.4008 72.5964 99.2525 72.956 100.256 72.956C101.259 72.956 102.111 72.5964 102.792 71.896C103.493 71.1957 103.833 70.306 103.833 69.265C103.833 68.2239 103.493 67.3532 102.792 66.6528Z" fill="white"/>
<path d="M93.6049 73.5238H92.9046V65.0059H93.6049V73.5238ZM93.2642 61.542C94.0214 61.542 94.0214 62.7534 93.2642 62.7534C92.4692 62.7534 92.4692 61.542 93.2642 61.542Z" fill="white"/>
<path d="M90.6158 69.4353H82.7226C82.7604 70.4575 83.139 71.3092 83.8394 71.9717C84.5397 72.6342 85.4294 72.975 86.4894 72.975C87.8333 72.975 88.8554 72.445 89.5558 71.385L90.2183 71.6121C89.4611 72.8803 88.0794 73.6375 86.4894 73.6375C85.2022 73.6375 84.1422 73.221 83.2904 72.3882C82.4386 71.5553 82.0222 70.5142 82.0222 69.265C82.0222 68.0157 82.4386 66.9746 83.2526 66.1417C84.0665 65.3089 85.0886 64.8925 86.319 64.8925C87.5494 64.8925 88.5715 65.3089 89.3854 66.1417C90.2183 66.9746 90.6347 68.0157 90.6347 69.265C90.6347 69.2839 90.6158 69.3785 90.6158 69.4353ZM82.7415 68.8296H89.9154C89.8208 67.8832 89.4233 67.1071 88.7608 66.4825C88.0983 65.8578 87.2844 65.555 86.319 65.555C85.3726 65.555 84.5586 65.8578 83.8961 66.4825C83.2336 67.1071 82.8361 67.8832 82.7415 68.8296Z" fill="white"/>
<path d="M77.2826 68.5835V73.5239H76.5823V65.006H77.2826V66.88C77.5287 66.3878 77.9262 65.9335 78.4751 65.5171C79.0241 65.1007 79.8001 64.8925 80.7844 64.8925H81.0305V65.6307C80.8601 65.6117 80.7276 65.5928 80.6519 65.5928C79.7055 65.5928 78.9105 65.8767 78.248 66.4635C77.6044 67.0314 77.2826 67.7317 77.2826 68.5835Z" fill="white"/>
<path d="M65.4075 60.7471H74.3607V61.4474H66.1457V66.5392H73.5089V67.2585H66.1457V73.5239H65.4075V60.7471Z" fill="white"/>
<path d="M103.937 45.8502C104.826 45.8502 105.603 46.1152 106.284 46.6452V40.8719H108.726V54.5952H106.284V54.0084C105.603 54.5384 104.826 54.8034 103.937 54.8034C102.782 54.8034 101.836 54.387 101.06 53.5352C100.284 52.6834 99.905 51.6045 99.905 50.3362C99.905 49.068 100.284 47.9891 101.06 47.1373C101.836 46.2855 102.782 45.8502 103.937 45.8502ZM102.46 50.3173C102.46 51.4719 103.293 52.3805 104.353 52.3805C105.413 52.3805 106.246 51.4719 106.246 50.3173C106.246 49.1816 105.413 48.273 104.353 48.273C103.293 48.273 102.46 49.1816 102.46 50.3173Z" fill="white"/>
<path d="M90.687 54.5953V46.0775H93.1477V46.9293C93.7345 46.21 94.5106 45.8503 95.4759 45.8503C96.4034 45.8503 97.1606 46.1721 97.7852 46.7968C98.4099 47.4214 98.7317 48.1975 98.7317 49.125V54.5953H96.2709V49.7686C96.2709 48.8411 95.6084 48.1407 94.7188 48.1407C93.8292 48.1407 93.1477 48.8411 93.1477 49.7686V54.5953H90.687Z" fill="white"/>
<path d="M84.4537 45.8503C85.3433 45.8503 86.1194 46.1153 86.8008 46.6453V46.0775H89.2426V54.5953H86.8008V54.0086C86.1194 54.5386 85.3433 54.8036 84.4537 54.8036C83.299 54.8036 82.3526 54.3871 81.5765 53.5353C80.8004 52.6836 80.4219 51.6046 80.4219 50.3364C80.4219 49.0682 80.8004 47.9893 81.5765 47.1375C82.3526 46.2857 83.299 45.8503 84.4537 45.8503ZM82.9772 50.3175C82.9772 51.4721 83.8101 52.3807 84.8701 52.3807C85.9301 52.3807 86.7629 51.4721 86.7629 50.3175C86.7629 49.1818 85.9301 48.2732 84.8701 48.2732C83.8101 48.2732 82.9772 49.1818 82.9772 50.3175Z" fill="white"/>
<path d="M79.2656 54.5952H76.8049V40.8719H79.2656V54.5952Z" fill="white"/>
<path d="M75.5751 48.1786L73.3226 48.5571C73.1712 48.0839 72.7548 47.8378 72.0544 47.8378C71.3919 47.8378 71.0701 48.0271 71.0701 48.3868C71.0701 48.6139 71.2973 48.8032 71.7515 48.9546L73.2658 49.4468C75.0073 49.9957 75.7076 50.7718 75.7076 52.0589C75.7076 53.8571 74.3258 54.8036 72.1869 54.8036C70.048 54.8036 68.7608 53.8571 68.5337 52.2671L70.7862 51.9453C70.9187 52.5132 71.4108 52.7971 72.2437 52.7971C72.9062 52.7971 73.3605 52.5511 73.3605 52.1725C73.3605 51.9075 73.0765 51.6803 72.5087 51.51L70.9565 51.0557C69.3665 50.6014 68.704 49.8821 68.704 48.595C68.704 46.7211 70.1048 45.8503 72.149 45.8503C74.1365 45.8503 75.3669 46.74 75.5751 48.1786Z" fill="white"/>
<path d="M67.2246 54.5951H64.5178V41.8184H67.2246V54.5951Z" fill="white"/>
<path d="M103.647 36.0831L103.817 35.6099L100.599 27.1488H103.136L104.991 32.392L106.922 27.1488H109.458L105.691 36.897C104.877 38.9981 103.59 39.9256 101.527 39.9256H101.262V37.5784H101.546C102.587 37.5784 103.287 37.0863 103.647 36.0831Z" fill="white"/>
<path d="M92.1475 35.6666V27.1488H94.6082V28.0006C95.195 27.2813 95.971 26.9216 96.9364 26.9216C97.8639 26.9216 98.621 27.2434 99.2457 27.8681C99.8703 28.4927 100.192 29.2688 100.192 30.1963V35.6666H97.7314V30.8398C97.7314 29.9123 97.0689 29.212 96.1792 29.212C95.2896 29.212 94.6082 29.9123 94.6082 30.8398V35.6666H92.1475Z" fill="white"/>
<path d="M82.6646 32.6192V27.1488H85.1253V31.9567C85.1253 32.8842 85.7878 33.6034 86.6774 33.6034C87.5671 33.6034 88.2485 32.8842 88.2485 31.9567V27.1488H90.7092V35.6667H88.2485V34.7959C87.6617 35.5152 86.8856 35.8749 85.9203 35.8749C84.9928 35.8749 84.2167 35.572 83.5921 34.9474C82.9674 34.3227 82.6646 33.5467 82.6646 32.6192Z" fill="white"/>
<path d="M79.1177 27.1488V28.0384C79.6666 27.3002 80.4427 26.9216 81.4459 26.9216C81.5784 26.9216 81.6731 26.9216 81.7298 26.9406V29.5527C81.4838 29.4013 81.1809 29.3256 80.8402 29.3256C79.8559 29.3256 79.1177 30.0638 79.1177 31.067V35.6666H76.657V27.1488H79.1177Z" fill="white"/>
<path d="M71.105 35.6667H64.5178V22.8899H70.7453C71.9 22.8899 72.8464 23.2306 73.6225 23.912C74.3985 24.5745 74.7771 25.4074 74.7771 26.4106C74.7771 27.4517 74.3796 28.3035 73.5846 28.966C74.7393 29.6853 75.3071 30.6885 75.3071 31.9945C75.3071 33.0356 74.9096 33.9253 74.0957 34.6256C73.2818 35.326 72.2975 35.6667 71.105 35.6667ZM71.086 30.3099H67.2246V33.187H71.086C71.8621 33.187 72.4868 32.5624 72.4868 31.7485C72.4868 30.9345 71.8621 30.3099 71.086 30.3099ZM70.7075 25.3885H67.2246V27.9438H70.7075C71.37 27.9438 71.881 27.5085 71.9568 26.846C71.9757 26.8081 71.9757 26.7513 71.9757 26.6567C71.9757 25.9185 71.4457 25.3885 70.7075 25.3885Z" fill="white"/>
<path d="M40.5904 53.0807C40.6294 53.0686 40.6685 53.0564 40.757 53.0272C41.0231 52.8215 41.2892 52.6158 41.5649 52.3753C41.5781 52.3531 41.597 52.3412 41.6216 52.3297C41.6216 52.3297 41.6307 52.3306 41.6492 52.2819C41.8741 52.05 42.1022 51.8214 42.3235 51.5855C43.5373 50.2918 44.7521 48.9991 45.9609 47.7C46.3664 47.2642 46.7734 46.8274 47.1466 46.3606C47.5028 45.9149 47.7065 45.3918 47.7225 44.785C47.7434 43.9904 47.4364 43.3493 46.9383 42.8106C45.241 40.9747 43.5334 39.1496 41.8221 37.3287C41.4778 36.9623 41.1227 36.6046 40.6569 36.4012C39.915 36.0772 39.0943 36.2218 38.5856 36.8251C37.9978 37.5221 37.8469 38.2607 38.2682 39.112C38.4239 39.4265 38.6305 39.7255 38.8628 39.9802C39.2637 40.42 39.7001 40.8228 40.1267 41.2352C40.5713 41.665 41.0219 42.0877 41.5142 42.5332C41.5896 42.6275 41.5605 42.6695 41.4536 42.6687C41.0346 42.6655 40.6156 42.6614 40.1316 42.6685C40.0002 42.6737 39.8688 42.679 39.6916 42.727C39.643 42.7354 39.5944 42.7512 39.5459 42.7512C37.9565 42.7528 36.3672 42.754 34.7779 42.7503C34.6843 42.7501 34.5909 42.7084 34.4389 42.6773C34.3802 42.6707 34.3215 42.6641 34.1967 42.6696C33.9492 42.6429 33.7017 42.6162 33.39 42.5917C33.1561 42.5531 32.9201 42.5254 32.6887 42.4742C30.7252 42.0396 29.0878 40.9911 27.7727 39.3847C25.4508 36.5485 25.0203 33.3005 26.0802 29.7848C26.6636 27.8495 27.7705 26.2769 29.2602 25.0227C29.8692 24.51 30.5188 24.0594 31.2894 23.7269C32.4511 23.1701 33.6712 22.8996 34.9896 22.8332C35.0635 22.8252 35.1373 22.8105 35.2112 22.8104C38.0405 22.8093 40.8699 22.8088 43.6993 22.8122C43.8063 22.8124 43.9133 22.8522 44.0902 22.8812C45.5918 22.879 47.0934 22.8767 48.6438 22.8339C49.5344 22.8265 50.425 22.8183 51.3156 22.8145C51.3598 22.8144 51.4041 22.8533 51.5125 22.8828C51.6849 22.9089 51.858 22.93 52.0295 22.9618C53.8815 23.3054 54.8776 24.7077 55.0407 26.6157C55.1008 27.3195 55.0976 28.0305 55.1019 28.7384C55.1117 30.3837 55.1098 32.0291 55.1098 33.6745C55.1099 34.1554 55.1005 34.6363 55.1085 35.191C55.1103 35.2445 55.1135 35.2979 55.1135 35.3514C55.1158 39.7782 55.1179 44.205 55.1191 48.6318C55.1191 48.7382 55.1073 48.8447 55.1131 49.0252C55.1149 49.1188 55.1183 49.2124 55.1183 49.306C55.119 54.6843 55.1194 60.0625 55.119 65.4408C55.1189 65.5205 55.1072 65.6003 55.1131 65.7542C55.0934 66.5278 55.1216 67.307 55.044 68.0738C54.8725 69.7669 54.18 71.1849 52.9229 72.2506C51.9898 73.0416 50.9215 73.482 49.6754 73.5976C48.6659 73.6055 47.6565 73.6134 46.5773 73.6329C42.6354 73.635 38.6935 73.6372 34.7517 73.6384C34.6898 73.6384 34.6279 73.6268 34.4966 73.6339C33.2151 73.6373 31.9336 73.6421 30.6521 73.6429C30.4288 73.643 30.2054 73.6265 29.924 73.6304C29.7906 73.6099 29.6571 73.5894 29.4579 73.5767C29.2245 73.5486 28.9904 73.5253 28.7576 73.4916C27.4101 73.2969 26.1578 72.7768 24.9479 72.1469C23.245 71.2603 21.8313 69.9768 20.6729 68.3756C20.0841 67.5618 19.5748 66.6993 19.1865 65.7446C18.8392 64.8908 18.5259 64.0328 18.3534 63.1216C18.2368 62.5062 18.1675 61.8806 18.0517 61.2651C17.9314 60.6261 17.9851 59.9867 18.0097 59.3476C18.0171 59.1536 18.1213 58.9634 18.1265 58.7698C18.1482 57.958 18.3431 57.189 18.586 56.3676C19.3225 53.846 20.6047 51.7026 22.4865 49.9915C22.9483 49.5716 23.4781 49.2376 24.007 48.8191C25.5691 47.7971 27.2755 47.2606 29.1355 47.0442C29.3668 47.0335 29.598 47.0228 29.8828 47.0154C29.9182 47.011 29.9537 47.0066 30.0371 46.9619C30.3192 46.9526 30.6014 46.9432 30.9449 46.9384C31.0265 46.9329 31.1082 46.9273 31.2366 46.8819C31.4488 46.8758 31.661 46.8697 31.9421 46.8661C32.2916 46.8665 32.6411 46.867 33.0545 46.8587C33.1832 46.8531 33.3118 46.8475 33.4891 46.8012C34.1524 46.7963 34.8157 46.7914 35.5477 46.7874C36.396 46.7871 37.2444 46.7868 38.1522 46.7785C38.2319 46.7737 38.3116 46.7689 38.4398 46.7226C39.342 46.7143 40.2442 46.7053 41.1464 46.6998C41.1916 46.6995 41.2413 46.7216 41.2798 46.7485C41.2918 46.7569 41.2735 46.815 41.232 46.8904C40.4524 47.7568 39.6675 48.6179 38.8967 49.4933C38.6929 49.7248 38.5051 49.9832 38.3573 50.2585C37.7166 51.4512 38.2238 52.806 39.5154 53.2061C39.7862 53.2045 40.057 53.2028 40.3349 53.2035C40.3349 53.2035 40.3394 53.1973 40.3713 53.161C40.4313 53.1474 40.4912 53.1337 40.5591 53.1218C40.5591 53.1218 40.5639 53.1148 40.5904 53.0807Z" fill="white"/>
</svg>
