<svg width="34" height="32" viewBox="0 0 34 32" fill="none" xmlns="http://www.w3.org/2000/svg">
<path d="M5.2835 32C4.376 32 3.59912 31.6867 2.95287 31.06C2.30662 30.4333 1.9835 29.68 1.9835 28.8V10.76C1.4885 10.4667 1.08975 10.0867 0.787246 9.62C0.484746 9.15333 0.333496 8.61333 0.333496 8V3.2C0.333496 2.32 0.656621 1.56667 1.30287 0.94C1.94912 0.313333 2.726 0 3.6335 0H30.0335C30.941 0 31.7179 0.313333 32.3641 0.94C33.0104 1.56667 33.3335 2.32 33.3335 3.2V8C33.3335 8.61333 33.1822 9.15333 32.8797 9.62C32.5772 10.0867 32.1785 10.4667 31.6835 10.76V28.8C31.6835 29.68 31.3604 30.4333 30.7141 31.06C30.0679 31.6867 29.291 32 28.3835 32H5.2835ZM5.2835 11.2V28.8H28.3835V11.2H5.2835ZM3.6335 8H30.0335V3.2H3.6335V8ZM11.8835 19.2H21.7835V16H11.8835V19.2Z" fill="#036A51"/>
</svg>
