<svg width="705" height="512" viewBox="0 0 705 512" fill="none" xmlns="http://www.w3.org/2000/svg">
<path d="M441.921 461.807C442.596 462.048 443.271 462.289 444.82 462.812C450.729 462.725 456.639 462.638 463.054 462.161C463.475 461.988 463.865 462.02 464.331 462.118C464.331 462.118 464.45 462.227 465.226 461.736C470.839 460.844 476.461 460.033 482.065 459.047C512.805 453.642 543.547 448.259 574.274 442.725C584.581 440.868 594.922 439.013 605.107 436.377C614.83 433.862 623.245 428.643 629.927 420.263C638.676 409.29 641.205 397.015 639.974 384.164C635.779 340.373 631.326 296.626 626.775 252.898C625.86 244.099 624.703 235.309 620.354 227.524C613.428 215.122 600.414 208.492 586.881 211.618C571.245 215.23 561.275 224.041 558.106 240.484C556.936 246.561 556.643 252.954 557.18 258.997C558.106 269.426 559.921 279.711 561.498 290.026C563.14 300.777 564.941 311.492 567.084 322.968C567.135 325.092 566.282 325.377 564.795 324.236C558.97 319.765 553.155 315.282 546.312 310.27C544.419 308.956 542.526 307.642 539.537 306.447C538.769 306.053 537.922 305.762 537.243 305.25C515.003 288.486 492.767 271.717 470.584 254.878C469.279 253.887 468.416 252.313 466.622 250.269C465.871 249.556 465.121 248.843 463.318 247.602C460.141 244.613 456.964 241.623 452.866 237.984C450.007 234.97 447.002 232.087 444.311 228.921C421.482 202.06 409.745 169.995 408.452 133.474C406.171 68.9926 434.716 18.6864 486.949 -19.6484C515.702 -40.7511 547.914 -51.2158 582.092 -53.1514C596.062 -53.9425 609.941 -53.4292 624.254 -49.9753C646.424 -45.549 666.361 -36.4744 685.503 -23.4847C686.62 -22.8161 687.81 -22.2447 688.843 -21.4651C728.416 8.40259 767.983 38.2795 807.507 68.2115C809.003 69.3438 810.075 71.0351 812.239 73.3113C833.259 89.14 854.278 104.969 876.412 120.74C888.943 130.043 901.484 139.333 913.976 148.687C914.596 149.151 914.801 150.168 916.003 151.728C918.135 153.916 920.332 156.043 922.391 158.302C944.63 182.703 943.635 212.979 925.609 241.583C918.961 252.133 911.349 262.117 903.876 272.135C886.504 295.418 868.967 318.579 851.458 341.759C846.34 348.535 841.091 355.212 835.3 363.111C834.756 363.883 834.232 364.67 833.663 365.423C786.585 427.813 739.505 490.202 692.411 552.579C691.279 554.079 689.981 555.455 688.141 558.059C687.17 559.397 686.221 560.752 685.225 562.071C627.999 637.848 570.77 713.624 513.528 789.389C512.679 790.513 511.666 791.511 510.112 793.743C501.603 804.432 493.706 815.708 484.459 825.692C464.044 847.734 439.27 860.396 410.353 862.133C388.887 863.422 369.264 858.343 350.61 846.81C336.411 836.26 322.213 825.709 306.915 814.586C251.776 772.982 196.637 731.378 141.507 689.761C140.642 689.108 139.9 688.29 137.989 687.004C120.034 673.517 102.065 660.049 84.1382 646.526C81.0136 644.169 78.0663 641.576 74.0912 638.659C72.443 636.961 70.7948 635.263 68.1453 632.98C65.1797 630.119 62.1549 627.318 59.2582 624.385C42.4897 607.41 30.5148 586.855 20.3003 565.201C5.92477 534.726 -0.183137 501.712 0.65971 466.919C1.08804 449.234 3.145 431.705 7.87522 414.154C12.1061 398.456 16.8563 383.061 24.1409 368.4C29.0602 358.5 34.7478 348.953 39.6791 339.058C44.7983 328.786 52.3526 320.346 59.498 311.6C61.6667 308.946 65.1469 307.367 67.2798 304.694C76.2229 293.488 87.1311 284.711 99.2693 275.705C136.403 247.959 177.14 231.305 221.661 227.074C232.588 226.036 243.551 226.925 255.399 226.616C288.117 228.716 317.684 239.18 345.995 255.777C349.343 258.069 352.69 260.361 356.75 263.265C357.293 263.577 357.835 263.888 359.477 264.14C363.522 266.988 367.567 269.837 372.421 273.397C373.621 274.182 374.822 274.966 377.101 275.683C380.133 277.838 383.164 279.994 387.134 282.911C392.016 286.608 396.898 290.306 402.767 294.556C404.625 295.836 406.483 297.117 409.454 298.336C418.781 305.273 428.108 312.209 438.385 319.885C450.25 328.841 462.115 337.796 474.897 347.267C476.063 348.041 477.228 348.815 479.514 349.517C492.216 358.929 504.926 368.332 517.6 377.782C518.236 378.256 518.695 379.094 518.947 379.878C519.026 380.122 518.152 380.749 516.77 381.373C496.648 385.345 476.509 389.186 456.416 393.378C451.104 394.486 445.727 396.144 440.73 398.461C419.081 408.497 411.754 432.941 425.555 452.22C429.359 455.057 433.164 457.893 437.041 460.838C437.041 460.838 437.171 460.799 438.003 460.625C438.987 461.066 439.97 461.506 441.046 462.055C441.046 462.055 441.187 462.007 441.921 461.807Z" fill="white" fill-opacity="0.15"/>
</svg>
