<svg width="961" height="410" viewBox="0 0 961 410" fill="none" xmlns="http://www.w3.org/2000/svg">
<mask id="mask0_18_1956" style="mask-type:alpha" maskUnits="userSpaceOnUse" x="0" y="0" width="961" height="410">
<rect x="0.128418" width="960.872" height="409.121" fill="#036951"/>
</mask>
<g mask="url(#mask0_18_1956)">
<path d="M750.421 369.648C750.961 369.841 751.502 370.034 752.741 370.453C757.472 370.383 762.202 370.313 767.337 369.932C767.674 369.793 767.986 369.819 768.359 369.897C768.359 369.897 768.454 369.984 769.075 369.591C773.568 368.877 778.068 368.228 782.554 367.439C807.159 363.113 831.767 358.804 856.361 354.374C864.612 352.888 872.889 351.403 881.042 349.293C888.824 347.28 895.56 343.103 900.908 336.395C907.911 327.612 909.936 317.786 908.951 307.5C905.592 272.448 902.028 237.431 898.386 202.429C897.653 195.386 896.726 188.351 893.246 182.119C887.702 172.192 877.285 166.885 866.453 169.387C853.937 172.278 845.956 179.331 843.42 192.493C842.483 197.357 842.249 202.474 842.679 207.311C843.42 215.659 844.873 223.892 846.135 232.148C847.45 240.754 848.891 249.33 850.607 258.516C850.647 260.216 849.964 260.444 848.774 259.531C844.112 255.952 839.457 252.364 833.98 248.352C832.465 247.301 830.949 246.249 828.557 245.292C827.942 244.977 827.264 244.744 826.72 244.334C808.919 230.915 791.12 217.492 773.364 204.014C772.319 203.221 771.628 201.961 770.192 200.325C769.592 199.754 768.991 199.184 767.548 198.19C765.005 195.797 762.462 193.404 759.182 190.492C756.893 188.079 754.488 185.772 752.334 183.237C734.061 161.737 724.666 136.071 723.631 106.837C721.805 55.2244 744.654 14.9574 786.463 -15.7273C809.478 -32.6188 835.262 -40.9951 862.619 -42.5444C873.802 -43.1777 884.911 -42.7668 896.367 -40.0022C914.113 -36.4592 930.071 -29.1955 945.393 -18.798C946.287 -18.2629 947.24 -17.8055 948.067 -17.1815C979.743 6.72575 1011.41 30.6404 1043.05 54.5992C1044.25 55.5055 1045.11 56.8593 1046.84 58.6812C1063.66 71.3511 1080.49 84.0211 1098.2 96.6454C1108.23 104.092 1118.27 111.528 1128.27 119.015C1128.77 119.386 1128.93 120.201 1129.89 121.449C1131.6 123.201 1133.36 124.903 1135.01 126.711C1152.81 146.243 1152.01 170.477 1137.58 193.373C1132.26 201.817 1126.17 209.809 1120.19 217.827C1106.28 236.464 1092.24 255.003 1078.23 273.557C1074.13 278.981 1069.93 284.325 1065.3 290.648C1064.86 291.266 1064.44 291.896 1063.99 292.499C1026.3 342.438 988.619 392.376 950.923 442.306C950.016 443.507 948.978 444.608 947.505 446.692C946.728 447.763 945.968 448.847 945.171 449.903C899.365 510.558 853.557 571.212 807.738 631.858C807.059 632.757 806.248 633.556 805.004 635.343C798.192 643.899 791.871 652.925 784.47 660.916C768.129 678.559 748.299 688.694 725.152 690.084C707.971 691.116 692.263 687.051 677.332 677.82C665.967 669.375 654.602 660.929 642.357 652.026C598.222 618.724 554.086 585.423 509.958 552.112C509.265 551.589 508.672 550.934 507.142 549.905C492.77 539.109 478.387 528.329 464.038 517.504C461.537 515.618 459.178 513.543 455.996 511.208C454.676 509.848 453.357 508.489 451.236 506.662C448.863 504.371 446.442 502.129 444.123 499.782C430.701 486.194 421.116 469.742 412.939 452.409C401.433 428.015 396.544 401.59 397.218 373.74C397.561 359.584 399.208 345.554 402.994 331.505C406.38 318.939 410.183 306.617 416.014 294.882C419.951 286.957 424.504 279.316 428.451 271.395C432.549 263.173 438.595 256.417 444.315 249.417C446.051 247.292 448.836 246.028 450.544 243.889C457.702 234.919 466.433 227.894 476.149 220.685C505.873 198.476 538.48 185.145 574.117 181.759C582.863 180.928 591.638 181.64 601.121 181.392C627.311 183.073 650.977 191.449 673.638 204.734C676.318 206.568 678.997 208.403 682.247 210.727C682.681 210.977 683.116 211.226 684.43 211.428C687.667 213.708 690.905 215.988 694.79 218.838C695.751 219.466 696.712 220.093 698.537 220.667C700.963 222.392 703.39 224.118 706.568 226.453C710.475 229.412 714.383 232.372 719.081 235.774C720.568 236.799 722.055 237.824 724.433 238.8C731.899 244.352 739.364 249.904 747.591 256.048C757.088 263.217 766.585 270.385 776.816 277.966C777.749 278.585 778.682 279.205 780.512 279.767C790.679 287.301 800.853 294.827 810.998 302.392C811.506 302.771 811.874 303.441 812.076 304.069C812.139 304.265 811.439 304.767 810.333 305.266C794.227 308.445 778.107 311.52 762.024 314.875C757.771 315.762 753.467 317.089 749.468 318.943C732.139 326.977 726.275 346.543 737.321 361.974C740.366 364.245 743.411 366.516 746.515 368.873C746.515 368.873 746.619 368.841 747.285 368.702C748.072 369.055 748.859 369.408 749.721 369.847C749.721 369.847 749.834 369.809 750.421 369.648Z" fill="white" fill-opacity="0.15"/>
</g>
</svg>
