<svg width="105" height="56" viewBox="0 0 105 56" fill="none" xmlns="http://www.w3.org/2000/svg">
<path d="M99.8906 43.6495V43.0059H101.443V41.132H102.124V43.0059H104.793V43.6495H102.124V49.1577C102.124 50.123 102.73 50.8423 103.544 50.8423H104.774V51.5237H103.506C102.351 51.5237 101.443 50.5205 101.443 49.2145V43.6495H99.8906Z" fill="white"/>
<path d="M90.5264 51.5238V37.8005H91.2267V44.8609C91.4728 44.3687 91.8703 43.9145 92.4192 43.517C92.9682 43.1005 93.7253 42.8923 94.6907 42.8923C95.6749 42.8923 96.4889 43.233 97.1514 43.8955C97.8139 44.558 98.1357 45.372 98.1357 46.3752V51.5238H97.4353V46.4887C97.4353 45.6559 97.1514 44.9555 96.6024 44.4066C96.0535 43.8388 95.3721 43.5548 94.5582 43.5548C93.6307 43.5548 92.8357 43.8388 92.1921 44.4255C91.5485 44.9934 91.2267 45.6937 91.2267 46.5455V51.5238H90.5264Z" fill="white"/>
<path d="M83.2181 42.8925C84.7892 42.8925 86.1331 43.7064 86.8714 45.0125V43.006H87.5528V51.5807C87.5528 52.811 87.1364 53.8521 86.2846 54.666C85.4328 55.48 84.3917 55.8964 83.1235 55.8964C81.5903 55.8964 80.2274 55.196 79.4703 54.0603L80.1517 53.8142C80.7574 54.666 81.8742 55.215 83.0856 55.215C84.1835 55.215 85.0921 54.8742 85.8114 54.1739C86.5306 53.4735 86.8903 52.6217 86.8903 51.5807V49.4985C86.1521 50.8046 84.8081 51.6375 83.2181 51.6375C82.0256 51.6375 81.0224 51.221 80.2085 50.3882C79.3946 49.5553 78.9971 48.5142 78.9971 47.265C78.9971 46.0157 79.3946 44.9746 80.2085 44.1417C81.0224 43.3089 82.0256 42.8925 83.2181 42.8925ZM85.7924 44.6528C85.111 43.9525 84.2592 43.5928 83.256 43.5928C82.2528 43.5928 81.401 43.9525 80.7196 44.6528C80.0381 45.3532 79.6974 46.2239 79.6974 47.265C79.6974 48.306 80.0381 49.1957 80.7196 49.896C81.401 50.5964 82.2528 50.956 83.256 50.956C84.2592 50.956 85.111 50.5964 85.7924 49.896C86.4928 49.1957 86.8335 48.306 86.8335 47.265C86.8335 46.2239 86.4928 45.3532 85.7924 44.6528Z" fill="white"/>
<path d="M76.6054 51.5238H75.9051V43.0059H76.6054V51.5238ZM76.2647 39.542C77.0218 39.542 77.0218 40.7534 76.2647 40.7534C75.4697 40.7534 75.4697 39.542 76.2647 39.542Z" fill="white"/>
<path d="M73.616 47.4353H65.7228C65.7607 48.4575 66.1392 49.3092 66.8396 49.9717C67.54 50.6342 68.4296 50.975 69.4896 50.975C70.8335 50.975 71.8557 50.445 72.556 49.385L73.2185 49.6121C72.4614 50.8803 71.0796 51.6375 69.4896 51.6375C68.2025 51.6375 67.1425 51.221 66.2907 50.3882C65.4389 49.5553 65.0225 48.5142 65.0225 47.265C65.0225 46.0157 65.4389 44.9746 66.2528 44.1417C67.0667 43.3089 68.0889 42.8925 69.3192 42.8925C70.5496 42.8925 71.5717 43.3089 72.3857 44.1417C73.2185 44.9746 73.635 46.0157 73.635 47.265C73.635 47.2839 73.616 47.3785 73.616 47.4353ZM65.7417 46.8296H72.9157C72.821 45.8832 72.4235 45.1071 71.761 44.4825C71.0985 43.8578 70.2846 43.555 69.3192 43.555C68.3728 43.555 67.5589 43.8578 66.8964 44.4825C66.2339 45.1071 65.8364 45.8832 65.7417 46.8296Z" fill="white"/>
<path d="M60.2829 46.5835V51.5239H59.5825V43.006H60.2829V44.88C60.5289 44.3878 60.9264 43.9335 61.4754 43.5171C62.0243 43.1007 62.8004 42.8925 63.7847 42.8925H64.0307V43.6307C63.8604 43.6117 63.7279 43.5928 63.6522 43.5928C62.7057 43.5928 61.9107 43.8767 61.2482 44.4635C60.6047 45.0314 60.2829 45.7317 60.2829 46.5835Z" fill="white"/>
<path d="M48.4077 38.7471H57.3609V39.4474H49.1459V44.5392H56.5091V45.2585H49.1459V51.5239H48.4077V38.7471Z" fill="white"/>
<path d="M86.9371 23.8502C87.8267 23.8502 88.6028 24.1152 89.2842 24.6452V18.8719H91.726V32.5952H89.2842V32.0084C88.6028 32.5384 87.8267 32.8034 86.9371 32.8034C85.7824 32.8034 84.836 32.387 84.0599 31.5352C83.2838 30.6834 82.9053 29.6045 82.9053 28.3362C82.9053 27.068 83.2838 25.9891 84.0599 25.1373C84.836 24.2855 85.7824 23.8502 86.9371 23.8502ZM85.4606 28.3173C85.4606 29.4719 86.2935 30.3805 87.3535 30.3805C88.4135 30.3805 89.2463 29.4719 89.2463 28.3173C89.2463 27.1816 88.4135 26.273 87.3535 26.273C86.2935 26.273 85.4606 27.1816 85.4606 28.3173Z" fill="white"/>
<path d="M73.6875 32.5953V24.0775H76.1482V24.9293C76.735 24.21 77.5111 23.8503 78.4764 23.8503C79.4039 23.8503 80.1611 24.1721 80.7857 24.7968C81.4104 25.4214 81.7321 26.1975 81.7321 27.125V32.5953H79.2714V27.7686C79.2714 26.8411 78.6089 26.1407 77.7193 26.1407C76.8296 26.1407 76.1482 26.8411 76.1482 27.7686V32.5953H73.6875Z" fill="white"/>
<path d="M67.4537 23.8503C68.3433 23.8503 69.1194 24.1153 69.8008 24.6453V24.0775H72.2426V32.5953H69.8008V32.0086C69.1194 32.5386 68.3433 32.8036 67.4537 32.8036C66.299 32.8036 65.3526 32.3871 64.5765 31.5353C63.8004 30.6836 63.4219 29.6046 63.4219 28.3364C63.4219 27.0682 63.8004 25.9893 64.5765 25.1375C65.3526 24.2857 66.299 23.8503 67.4537 23.8503ZM65.9772 28.3175C65.9772 29.4721 66.8101 30.3807 67.8701 30.3807C68.9301 30.3807 69.7629 29.4721 69.7629 28.3175C69.7629 27.1818 68.9301 26.2732 67.8701 26.2732C66.8101 26.2732 65.9772 27.1818 65.9772 28.3175Z" fill="white"/>
<path d="M62.2659 32.5952H59.8052V18.8719H62.2659V32.5952Z" fill="white"/>
<path d="M58.5756 26.1786L56.3231 26.5571C56.1717 26.0839 55.7553 25.8378 55.0549 25.8378C54.3924 25.8378 54.0706 26.0271 54.0706 26.3868C54.0706 26.6139 54.2978 26.8032 54.752 26.9546L56.2663 27.4468C58.0078 27.9957 58.7081 28.7718 58.7081 30.0589C58.7081 31.8571 57.3263 32.8036 55.1874 32.8036C53.0485 32.8036 51.7613 31.8571 51.5342 30.2671L53.7867 29.9453C53.9192 30.5132 54.4113 30.7971 55.2442 30.7971C55.9067 30.7971 56.361 30.5511 56.361 30.1725C56.361 29.9075 56.077 29.6803 55.5092 29.51L53.957 29.0557C52.367 28.6014 51.7045 27.8821 51.7045 26.595C51.7045 24.7211 53.1053 23.8503 55.1495 23.8503C57.137 23.8503 58.3674 24.74 58.5756 26.1786Z" fill="white"/>
<path d="M50.2249 32.5951H47.5181V19.8184H50.2249V32.5951Z" fill="white"/>
<path d="M86.6471 14.0831L86.8175 13.6099L83.5996 5.1488H86.136L87.991 10.392L89.9218 5.1488H92.4582L88.6914 14.897C87.8775 16.9981 86.5903 17.9256 84.5271 17.9256H84.2621V15.5784H84.546C85.5871 15.5784 86.2875 15.0863 86.6471 14.0831Z" fill="white"/>
<path d="M75.1475 13.6666V5.14877H77.6082V6.00056C78.195 5.28127 78.971 4.92163 79.9364 4.92163C80.8639 4.92163 81.621 5.24342 82.2457 5.86806C82.8703 6.4927 83.1921 7.26877 83.1921 8.19627V13.6666H80.7314V8.83984C80.7314 7.91234 80.0689 7.21199 79.1792 7.21199C78.2896 7.21199 77.6082 7.91234 77.6082 8.83984V13.6666H75.1475Z" fill="white"/>
<path d="M65.665 10.6192V5.1488H68.1258V9.95666C68.1258 10.8842 68.7883 11.6034 69.6779 11.6034C70.5675 11.6034 71.249 10.8842 71.249 9.95666V5.1488H73.7097V13.6667H71.249V12.7959C70.6622 13.5152 69.8861 13.8749 68.9208 13.8749C67.9933 13.8749 67.2172 13.572 66.5925 12.9474C65.9679 12.3227 65.665 11.5467 65.665 10.6192Z" fill="white"/>
<path d="M62.1179 5.14877V6.03842C62.6669 5.3002 63.4429 4.92163 64.4462 4.92163C64.5787 4.92163 64.6733 4.92163 64.7301 4.94056V7.5527C64.484 7.40127 64.1812 7.32556 63.8404 7.32556C62.8562 7.32556 62.1179 8.06377 62.1179 9.06699V13.6666H59.6572V5.14877H62.1179Z" fill="white"/>
<path d="M54.1052 13.6667H47.5181V0.889893H53.7456C54.9002 0.889893 55.8466 1.23061 56.6227 1.91203C57.3988 2.57454 57.7774 3.40739 57.7774 4.41061C57.7774 5.45168 57.3799 6.30346 56.5849 6.96596C57.7395 7.68525 58.3074 8.68847 58.3074 9.99454C58.3074 11.0356 57.9099 11.9253 57.0959 12.6256C56.282 13.326 55.2977 13.6667 54.1052 13.6667ZM54.0863 8.30989H50.2249V11.187H54.0863C54.8624 11.187 55.487 10.5624 55.487 9.74846C55.487 8.93454 54.8624 8.30989 54.0863 8.30989ZM53.7077 3.38846H50.2249V5.94382H53.7077C54.3702 5.94382 54.8813 5.50846 54.957 4.84596C54.9759 4.80811 54.9759 4.75132 54.9759 4.65668C54.9759 3.91846 54.4459 3.38846 53.7077 3.38846Z" fill="white"/>
<path d="M23.5904 31.0807C23.6294 31.0686 23.6685 31.0564 23.757 31.0272C24.0231 30.8215 24.2892 30.6158 24.5649 30.3753C24.5781 30.3531 24.597 30.3412 24.6216 30.3297C24.6216 30.3297 24.6307 30.3306 24.6492 30.2819C24.8741 30.05 25.1022 29.8214 25.3235 29.5855C26.5373 28.2918 27.7521 26.9991 28.9609 25.7C29.3664 25.2642 29.7734 24.8274 30.1466 24.3606C30.5028 23.9149 30.7065 23.3918 30.7225 22.785C30.7434 21.9904 30.4364 21.3493 29.9383 20.8106C28.241 18.9747 26.5334 17.1496 24.8221 15.3287C24.4778 14.9623 24.1227 14.6046 23.6569 14.4012C22.915 14.0772 22.0943 14.2218 21.5856 14.8251C20.9978 15.5221 20.8469 16.2607 21.2682 17.112C21.4239 17.4265 21.6305 17.7255 21.8628 17.9802C22.2637 18.42 22.7001 18.8228 23.1267 19.2352C23.5713 19.665 24.0219 20.0877 24.5142 20.5332C24.5896 20.6275 24.5605 20.6695 24.4536 20.6687C24.0346 20.6655 23.6156 20.6614 23.1316 20.6685C23.0002 20.6737 22.8688 20.679 22.6916 20.727C22.643 20.7354 22.5944 20.7512 22.5459 20.7512C20.9565 20.7528 19.3672 20.754 17.7779 20.7503C17.6843 20.7501 17.5909 20.7084 17.4389 20.6773C17.3802 20.6707 17.3215 20.6641 17.1967 20.6696C16.9492 20.6429 16.7017 20.6162 16.39 20.5917C16.1561 20.5531 15.9201 20.5254 15.6887 20.4742C13.7252 20.0396 12.0878 18.9911 10.7727 17.3847C8.45083 14.5485 8.02029 11.3005 9.08017 7.78483C9.66361 5.84954 10.7705 4.27693 12.2602 3.02267C12.8692 2.51 13.5188 2.0594 14.2894 1.72689C15.4511 1.17009 16.6712 0.899576 17.9896 0.833161C18.0635 0.82525 18.1373 0.810451 18.2112 0.810422C21.0405 0.809279 23.8699 0.808791 26.6993 0.812223C26.8063 0.812352 26.9133 0.852189 27.0902 0.881165C28.5918 0.878953 30.0934 0.876742 31.6438 0.833898C32.5344 0.826548 33.425 0.818295 34.3156 0.814539C34.3598 0.814352 34.4041 0.85332 34.5125 0.882801C34.6849 0.908884 34.858 0.930004 35.0295 0.96181C36.8815 1.30538 37.8776 2.70766 38.0407 4.61573C38.1008 5.31946 38.0976 6.03054 38.1019 6.73841C38.1117 8.38371 38.1098 10.0291 38.1098 11.6745C38.1099 12.1554 38.1005 12.6363 38.1085 13.191C38.1103 13.2445 38.1135 13.2979 38.1135 13.3514C38.1158 17.7782 38.1179 22.205 38.1191 26.6318C38.1191 26.7382 38.1073 26.8447 38.1131 27.0252C38.1149 27.1188 38.1183 27.2124 38.1183 27.306C38.119 32.6843 38.1194 38.0625 38.119 43.4408C38.1189 43.5205 38.1072 43.6003 38.1131 43.7542C38.0934 44.5278 38.1216 45.307 38.044 46.0738C37.8725 47.7669 37.18 49.1849 35.9229 50.2506C34.9898 51.0416 33.9215 51.482 32.6754 51.5976C31.6659 51.6055 30.6565 51.6134 29.5773 51.6329C25.6354 51.635 21.6935 51.6372 17.7517 51.6384C17.6898 51.6384 17.6279 51.6268 17.4966 51.6339C16.2151 51.6373 14.9336 51.6421 13.6521 51.6429C13.4288 51.643 13.2054 51.6265 12.924 51.6304C12.7906 51.6099 12.6571 51.5894 12.4579 51.5767C12.2245 51.5486 11.9904 51.5253 11.7576 51.4916C10.4101 51.2969 9.15783 50.7768 7.94787 50.1469C6.245 49.2603 4.8313 47.9768 3.6729 46.3756C3.08409 45.5618 2.57482 44.6993 2.18649 43.7446C1.83918 42.8908 1.52594 42.0328 1.35338 41.1216C1.23684 40.5062 1.16747 39.8806 1.05165 39.2651C0.931438 38.6261 0.985104 37.9867 1.00965 37.3476C1.01711 37.1536 1.12128 36.9634 1.12647 36.7698C1.14824 35.958 1.34305 35.189 1.58602 34.3676C2.32254 31.846 3.60469 29.7026 5.48651 27.9915C5.94835 27.5716 6.47814 27.2376 7.00703 26.8191C8.56914 25.7971 10.2755 25.2606 12.1355 25.0442C12.3668 25.0335 12.598 25.0228 12.8828 25.0154C12.9182 25.011 12.9537 25.0066 13.0371 24.9619C13.3192 24.9526 13.6014 24.9432 13.9449 24.9384C14.0265 24.9329 14.1082 24.9273 14.2366 24.8819C14.4488 24.8758 14.661 24.8697 14.9421 24.8661C15.2916 24.8665 15.6411 24.867 16.0545 24.8587C16.1832 24.8531 16.3118 24.8475 16.4891 24.8012C17.1524 24.7963 17.8157 24.7914 18.5477 24.7874C19.396 24.7871 20.2444 24.7868 21.1522 24.7785C21.2319 24.7737 21.3116 24.7689 21.4398 24.7226C22.342 24.7143 23.2442 24.7053 24.1464 24.6998C24.1916 24.6995 24.2413 24.7216 24.2798 24.7485C24.2918 24.7569 24.2735 24.815 24.232 24.8904C23.4524 25.7568 22.6675 26.6179 21.8967 27.4933C21.6929 27.7248 21.5051 27.9832 21.3573 28.2585C20.7166 29.4512 21.2238 30.806 22.5154 31.2061C22.7862 31.2045 23.057 31.2028 23.3349 31.2035C23.3349 31.2035 23.3394 31.1973 23.3713 31.161C23.4313 31.1474 23.4912 31.1337 23.5591 31.1218C23.5591 31.1218 23.5639 31.1148 23.5904 31.0807Z" fill="white"/>
</svg>
