<svg width="32" height="32" viewBox="0 0 32 32" fill="none" xmlns="http://www.w3.org/2000/svg">
<path d="M16 28.84C15.12 28.84 14.3667 28.52 13.74 27.88C13.1133 27.24 12.8 26.48 12.8 25.6C12.8 24.72 13.1133 23.9667 13.74 23.34C14.3667 22.7133 15.12 22.4 16 22.4L16.96 21.48C17.1733 21.2667 17.42 21.1 17.7 20.98C17.98 20.86 18.2667 20.8 18.56 20.8C19.1733 20.8 19.7 21.0267 20.14 21.48C20.58 21.9333 20.8 22.4667 20.8 23.08V23.76C20.8 24.2933 20.9733 24.7333 21.32 25.08C21.6667 25.4267 22.1067 25.6 22.64 25.6C23.04 25.6 23.4 25.48 23.72 25.24C24.04 25 24.2667 24.6933 24.4 24.32L24.88 23C25.12 22.36 25.5067 21.8333 26.04 21.42C26.5733 21.0067 27.1867 20.8 27.88 20.8C28.1733 20.0533 28.4067 19.28 28.58 18.48C28.7533 17.68 28.84 16.8533 28.84 16C28.84 13.6267 28.2467 11.46 27.06 9.5C25.8733 7.54 24.32 6 22.4 4.88V6.4C22.4 7.28 22.0867 8.03333 21.46 8.66C20.8333 9.28667 20.08 9.6 19.2 9.6H17.6V12.8C17.6 13.2533 17.4467 13.6333 17.14 13.94C16.8333 14.2467 16.4533 14.4 16 14.4H14.4V17.12C14.4 17.7067 14.2 18.2 13.8 18.6C13.4 19 12.9067 19.2 12.32 19.2C11.9467 19.2 11.6067 19.12 11.3 18.96C10.9933 18.8 10.7467 18.5733 10.56 18.28L8 14.4H6.4V16C6.4 16.8267 6.12 17.5333 5.56 18.12C5 18.7067 4.33333 19.0533 3.56 19.16C4.25333 21.9333 5.75333 24.24 8.06 26.08C10.3667 27.92 13.0133 28.84 16 28.84ZM19.2 19.2C18.7467 19.2 18.3667 19.0467 18.06 18.74C17.7533 18.4333 17.6 18.0533 17.6 17.6C17.6 17.1467 17.7533 16.7667 18.06 16.46C18.3667 16.1533 18.7467 16 19.2 16H20.8C21.2533 16 21.6333 16.1533 21.94 16.46C22.2467 16.7667 22.4 17.1467 22.4 17.6C22.4 18.0533 22.2467 18.4333 21.94 18.74C21.6333 19.0467 21.2533 19.2 20.8 19.2H19.2ZM22.92 14.4C22.3867 14.4 21.9667 14.1933 21.66 13.78C21.3533 13.3667 21.28 12.9067 21.44 12.4L22.04 10.64C22.1467 10.32 22.3333 10.0667 22.6 9.88C22.8667 9.69333 23.16 9.6 23.48 9.6C24.0133 9.6 24.4333 9.80667 24.74 10.22C25.0467 10.6333 25.12 11.0933 24.96 11.6L24.36 13.36C24.2533 13.68 24.0667 13.9333 23.8 14.12C23.5333 14.3067 23.24 14.4 22.92 14.4ZM16 32C13.7867 32 11.7067 31.58 9.76 30.74C7.81333 29.9 6.12 28.76 4.68 27.32C3.24 25.88 2.1 24.1867 1.26 22.24C0.42 20.2933 0 18.2133 0 16C0 13.7867 0.42 11.7067 1.26 9.76C2.1 7.81333 3.24 6.12 4.68 4.68C6.12 3.24 7.81333 2.1 9.76 1.26C11.7067 0.42 13.7867 0 16 0C18.2133 0 20.2933 0.42 22.24 1.26C24.1867 2.1 25.88 3.24 27.32 4.68C28.76 6.12 29.9 7.81333 30.74 9.76C31.58 11.7067 32 13.7867 32 16C32 18.2133 31.58 20.2933 30.74 22.24C29.9 24.1867 28.76 25.88 27.32 27.32C25.88 28.76 24.1867 29.9 22.24 30.74C20.2933 31.58 18.2133 32 16 32Z" fill="#036A51"/>
</svg>
